# xmcd CD database file
#
# Track frame offsets:
#	150
#	19987
#	47700
#	58097
#	82920
#	98172
#
# Disc length: 1438 seconds
#
# Revision: 0
# Processed by: cddbd v1.5PL3 Copyright (c) Steve Scherf et al.
# Submitted via: CDex 1.50
#
DISCID=44059c06
DTITLE=越後屋 - 2001-01 demo
DYEAR=2001
DGENRE=Instrumental Rock
TTITLE0=おしゃべり女
TTITLE1=モノトーン
TTITLE2=Mirror
TTITLE3=月並
TTITLE4=おしゃべり女（イントロ）
TTITLE5=とびおりた
EXTD=YEAR: 2001
EXTT0=
EXTT1=
EXTT2=
EXTT3=
EXTT4=
EXTT5=
PLAYORDER=
